<svg width="40" height="40" viewBox="0 0 40 40" fill="none" xmlns="http://www.w3.org/2000/svg">
<path d="M20 0.540527C9.25385 0.540527 0.540527 9.25385 0.540527 20C0.540527 30.7461 9.25385 39.4594 20 39.4594C30.7461 39.4594 39.4594 30.7461 39.4594 20C39.4594 9.25385 30.7461 0.540527 20 0.540527ZM20 36.1583C11.0782 36.1583 3.84169 28.9218 3.84169 20C3.84169 11.0782 11.0782 3.84169 20 3.84169C28.9218 3.84169 36.1583 11.0782 36.1583 20C36.1583 28.9218 28.9218 36.1583 20 36.1583ZM22.0719 18.9923L20.9686 18.736V12.9025C22.6192 13.1284 23.6399 14.1621 23.8137 15.4305C23.8354 15.6042 23.9831 15.7302 24.1568 15.7302H26.1071C26.3113 15.7302 26.472 15.5521 26.4546 15.348C26.1897 12.6419 23.9614 10.9044 20.986 10.6047V9.18435C20.986 8.99323 20.8296 8.83686 20.6385 8.83686H19.4179C19.2268 8.83686 19.0705 8.99323 19.0705 9.18435V10.6177C15.9952 10.9175 13.5888 12.6158 13.5888 15.7867C13.5888 18.723 15.7519 20.139 18.0236 20.6819L19.0965 20.9556V27.1539C17.1766 26.8977 16.0994 25.8726 15.8779 24.4913C15.8518 24.3262 15.7041 24.2046 15.5347 24.2046H13.528C13.3238 24.2046 13.1631 24.3784 13.1805 24.5825C13.376 26.9715 15.1872 29.1694 19.0531 29.4517V30.8156C19.0531 31.0067 19.2094 31.1631 19.4006 31.1631H20.6342C20.8253 31.1631 20.9816 31.0067 20.9816 30.8113L20.973 29.4344C24.374 29.1346 26.8065 27.3147 26.8065 24.0483C26.8021 21.0338 24.8866 19.6872 22.0719 18.9923ZM19.0922 18.2886C18.8489 18.2191 18.6448 18.1539 18.4406 18.0714C16.9725 17.5415 16.2905 16.6858 16.2905 15.5825C16.2905 14.0058 17.485 13.1066 19.0922 12.9025V18.2886ZM20.9686 27.167V21.3595C21.1033 21.3986 21.2249 21.429 21.3509 21.4551C23.4054 22.0806 24.096 22.9493 24.096 24.2828C24.096 25.9812 22.819 27.0019 20.9686 27.167Z" fill="#FFC947"/>
</svg>
