<svg width="25" height="25" viewBox="0 0 25 25" fill="none" xmlns="http://www.w3.org/2000/svg">
<path d="M16.9849 8.02155C18.5762 8.02155 20.1023 8.65369 21.2275 9.7789C22.3527 10.9041 22.9849 12.4302 22.9849 14.0215V21.0215H18.9849V14.0215C18.9849 13.4911 18.7741 12.9824 18.3991 12.6073C18.024 12.2323 17.5153 12.0215 16.9849 12.0215C16.4544 12.0215 15.9457 12.2323 15.5707 12.6073C15.1956 12.9824 14.9849 13.4911 14.9849 14.0215V21.0215H10.9849V14.0215C10.9849 12.4302 11.617 10.9041 12.7422 9.7789C13.8674 8.65369 15.3936 8.02155 16.9849 8.02155V8.02155Z" stroke="#141414" stroke-width="2" stroke-linecap="round" stroke-linejoin="round"/>
<path d="M6.98486 9.02155H2.98486V21.0215H6.98486V9.02155Z" stroke="#141414" stroke-width="2" stroke-linecap="round" stroke-linejoin="round"/>
<path d="M4.98486 6.02155C6.08943 6.02155 6.98486 5.12611 6.98486 4.02155C6.98486 2.91698 6.08943 2.02155 4.98486 2.02155C3.88029 2.02155 2.98486 2.91698 2.98486 4.02155C2.98486 5.12611 3.88029 6.02155 4.98486 6.02155Z" stroke="#141414" stroke-width="2" stroke-linecap="round" stroke-linejoin="round"/>
</svg>
