<svg width="180" height="46" viewBox="0 0 180 46" fill="none" xmlns="http://www.w3.org/2000/svg">
<path d="M1.8 33.624C2.352 33.6 2.808 33.528 3.168 33.408C3.552 33.288 3.84 33.012 4.032 32.58C4.248 32.148 4.356 31.452 4.356 30.492V16.704C4.356 16.056 4.368 15.432 4.392 14.832C4.44 14.232 4.476 13.776 4.5 13.464C4.116 13.488 3.636 13.512 3.06 13.536C2.484 13.536 2.064 13.548 1.8 13.572V10.8C3.504 10.776 5.208 10.764 6.912 10.764C8.616 10.764 10.32 10.752 12.024 10.728C14.136 10.704 15.972 10.98 17.532 11.556C19.116 12.132 20.328 13.02 21.168 14.22C22.032 15.42 22.44 16.98 22.392 18.9C22.368 20.172 21.972 21.408 21.204 22.608C20.46 23.808 19.332 24.804 17.82 25.596C16.332 26.388 14.448 26.82 12.168 26.892C11.184 26.916 10.32 26.916 9.576 26.892V30.06C9.576 30.732 9.564 31.368 9.54 31.968C9.516 32.568 9.48 33.024 9.432 33.336C9.696 33.312 10.032 33.3 10.44 33.3C10.848 33.276 11.244 33.264 11.628 33.264C12.036 33.24 12.324 33.228 12.492 33.228V36H1.8V33.624ZM9.576 24.192C10.08 24.264 10.62 24.3 11.196 24.3C13.188 24.3 14.616 23.808 15.48 22.824C16.368 21.816 16.812 20.4 16.812 18.576C16.812 17.376 16.644 16.416 16.308 15.696C15.996 14.976 15.588 14.448 15.084 14.112C14.58 13.752 14.052 13.524 13.5 13.428C12.948 13.308 12.444 13.248 11.988 13.248C11.244 13.248 10.656 13.404 10.224 13.716C9.792 14.028 9.576 14.82 9.576 16.092V24.192ZM32.4025 36.576C30.6505 36.576 29.1025 36.192 27.7585 35.424C26.4145 34.632 25.3705 33.528 24.6265 32.112C23.8825 30.672 23.5105 28.98 23.5105 27.036C23.5105 25.356 23.8825 23.784 24.6265 22.32C25.3705 20.856 26.4145 19.68 27.7585 18.792C29.1265 17.88 30.7105 17.424 32.5105 17.424C33.5185 17.424 34.5025 17.568 35.4625 17.856C36.4225 18.12 37.2865 18.588 38.0545 19.26C38.8465 19.932 39.4705 20.844 39.9265 21.996C40.4065 23.148 40.6345 24.588 40.6105 26.316L28.8025 26.532C28.8025 27.828 28.9585 28.992 29.2705 30.024C29.6065 31.056 30.1465 31.872 30.8905 32.472C31.6345 33.072 32.6305 33.372 33.8785 33.372C34.5985 33.372 35.4505 33.18 36.4345 32.796C37.4425 32.388 38.3545 31.68 39.1705 30.672L40.7905 32.184C39.9265 33.408 39.0025 34.344 38.0185 34.992C37.0345 35.616 36.0505 36.036 35.0665 36.252C34.1065 36.468 33.2185 36.576 32.4025 36.576ZM29.0185 24.012H35.6425C35.6185 22.524 35.3305 21.48 34.7785 20.88C34.2265 20.256 33.5305 19.944 32.6905 19.944C31.6345 19.944 30.8065 20.328 30.2065 21.096C29.6065 21.84 29.2105 22.812 29.0185 24.012ZM50.3696 36.576C49.6496 36.576 48.9536 36.492 48.2816 36.324C47.6336 36.156 47.0336 35.844 46.4816 35.388C45.9536 34.908 45.5336 34.212 45.2216 33.3C44.9096 32.388 44.7536 31.176 44.7536 29.664L44.8256 20.988H42.3776V18C43.1216 17.976 43.8416 17.724 44.5376 17.244C45.2336 16.764 45.8216 16.14 46.3016 15.372C46.8056 14.604 47.1416 13.8 47.3096 12.96H49.9736L49.9376 18H54.5096V20.772L49.9376 20.88L49.9016 29.736C49.9016 30.288 49.9496 30.84 50.0456 31.392C50.1656 31.92 50.3816 32.364 50.6936 32.724C51.0056 33.06 51.4616 33.228 52.0616 33.228C52.3976 33.228 52.8536 33.108 53.4296 32.868C54.0296 32.628 54.6656 32.028 55.3376 31.068L57.0656 32.688C56.4176 33.648 55.7456 34.392 55.0496 34.92C54.3536 35.448 53.6816 35.832 53.0336 36.072C52.4096 36.312 51.8576 36.456 51.3776 36.504C50.8976 36.552 50.5616 36.576 50.3696 36.576ZM58.2961 36V33.624C58.8481 33.6 59.3041 33.528 59.6641 33.408C60.0481 33.288 60.3361 33.012 60.5281 32.58C60.7441 32.148 60.8521 31.452 60.8521 30.492V16.704C60.8521 16.056 60.8641 15.432 60.8881 14.832C60.9361 14.232 60.9721 13.776 60.9961 13.464C60.6121 13.488 60.1321 13.512 59.5561 13.536C58.9801 13.536 58.5601 13.548 58.2961 13.572V10.8H68.6281V13.176C68.1001 13.2 67.6441 13.272 67.2601 13.392C66.8761 13.512 66.5761 13.788 66.3601 14.22C66.1681 14.628 66.0721 15.324 66.0721 16.308V30.096C66.0721 30.744 66.0601 31.356 66.0361 31.932C66.0121 32.508 65.9761 32.952 65.9281 33.264H70.7521C72.1681 33.24 73.2721 32.748 74.0641 31.788C74.8801 30.804 75.2881 29.328 75.2881 27.36H77.7001L77.4841 36H58.2961ZM114.766 36.108L109.078 23.616C108.814 23.016 108.622 22.56 108.502 22.248C108.406 21.936 108.334 21.672 108.286 21.456C108.262 21.216 108.214 20.952 108.142 20.664L106.81 20.736V18H115.234V20.304C114.49 20.328 114.094 20.628 114.046 21.204C114.022 21.756 114.13 22.392 114.37 23.112L116.242 27.72C116.434 28.176 116.626 28.644 116.818 29.124C117.01 29.604 117.202 30.084 117.394 30.564H117.43C117.622 30.06 117.802 29.556 117.97 29.052C118.162 28.548 118.342 28.044 118.51 27.54L120.058 23.148C120.274 22.548 120.466 22.068 120.634 21.708C120.826 21.348 121.03 20.976 121.246 20.592L119.014 20.736V18H125.854V20.304C125.302 20.4 124.81 20.712 124.378 21.24C123.946 21.744 123.574 22.32 123.262 22.968C122.95 23.592 122.698 24.144 122.506 24.624L117.898 36.108H114.766ZM135.551 36.576C133.799 36.576 132.251 36.192 130.907 35.424C129.563 34.632 128.519 33.528 127.775 32.112C127.031 30.672 126.659 28.98 126.659 27.036C126.659 25.356 127.031 23.784 127.775 22.32C128.519 20.856 129.563 19.68 130.907 18.792C132.275 17.88 133.859 17.424 135.659 17.424C136.667 17.424 137.651 17.568 138.611 17.856C139.571 18.12 140.435 18.588 141.203 19.26C141.995 19.932 142.619 20.844 143.075 21.996C143.555 23.148 143.783 24.588 143.759 26.316L131.951 26.532C131.951 27.828 132.107 28.992 132.419 30.024C132.755 31.056 133.295 31.872 134.039 32.472C134.783 33.072 135.779 33.372 137.027 33.372C137.747 33.372 138.599 33.18 139.583 32.796C140.591 32.388 141.503 31.68 142.319 30.672L143.939 32.184C143.075 33.408 142.151 34.344 141.167 34.992C140.183 35.616 139.199 36.036 138.215 36.252C137.255 36.468 136.367 36.576 135.551 36.576ZM132.167 24.012H138.791C138.767 22.524 138.479 21.48 137.927 20.88C137.375 20.256 136.679 19.944 135.839 19.944C134.783 19.944 133.955 20.328 133.355 21.096C132.755 21.84 132.359 22.812 132.167 24.012ZM146.39 33.66C147.374 33.66 147.974 33.372 148.19 32.796C148.406 32.196 148.514 31.416 148.514 30.456V24.408C148.514 23.976 148.526 23.496 148.55 22.968C148.574 22.416 148.61 21.876 148.658 21.348C148.274 21.372 147.818 21.396 147.29 21.42C146.786 21.42 146.402 21.432 146.138 21.456V18.72H147.578C148.514 18.72 149.366 18.6 150.134 18.36C150.926 18.12 151.442 17.88 151.682 17.64H153.446C153.494 17.88 153.53 18.336 153.554 19.008C153.578 19.656 153.59 20.232 153.59 20.736C154.55 19.536 155.45 18.684 156.29 18.18C157.13 17.676 157.982 17.424 158.846 17.424C159.686 17.424 160.418 17.664 161.042 18.144C161.666 18.6 161.978 19.356 161.978 20.412C161.978 20.772 161.894 21.156 161.726 21.564C161.558 21.948 161.294 22.272 160.934 22.536C160.574 22.8 160.082 22.932 159.458 22.932C158.978 22.932 158.486 22.788 157.982 22.5C157.478 22.212 157.19 21.66 157.118 20.844C156.638 20.844 156.158 21.048 155.678 21.456C155.198 21.84 154.766 22.308 154.382 22.86C154.022 23.388 153.77 23.88 153.626 24.336V30.204C153.626 30.54 153.614 31.02 153.59 31.644C153.566 32.244 153.53 32.82 153.482 33.372C153.866 33.324 154.286 33.3 154.742 33.3C155.222 33.276 155.582 33.264 155.822 33.264V36H146.39V33.66ZM171.826 36.576C170.794 36.576 169.786 36.444 168.802 36.18C167.818 35.916 167.05 35.58 166.498 35.172L166.57 36.252H163.834L163.69 30.06H166.03C166.15 31.164 166.726 32.1 167.758 32.868C168.79 33.612 170.074 33.984 171.61 33.984C172.21 33.984 172.774 33.84 173.302 33.552C173.83 33.264 174.094 32.808 174.094 32.184C174.07 31.488 173.698 30.972 172.978 30.636C172.282 30.3 171.262 29.868 169.918 29.34C169.174 29.052 168.418 28.752 167.65 28.44C166.906 28.128 166.21 27.756 165.562 27.324C164.938 26.868 164.434 26.316 164.05 25.668C163.666 24.996 163.474 24.18 163.474 23.22C163.474 22.284 163.702 21.372 164.158 20.484C164.638 19.596 165.382 18.864 166.39 18.288C167.398 17.712 168.682 17.424 170.242 17.424C170.89 17.424 171.622 17.532 172.438 17.748C173.278 17.94 173.986 18.24 174.562 18.648V17.604H177.298V23.976H174.958C174.742 22.728 174.19 21.744 173.302 21.024C172.414 20.304 171.322 19.944 170.026 19.944C169.426 19.944 168.874 20.088 168.37 20.376C167.89 20.664 167.65 21.156 167.65 21.852C167.65 22.404 167.842 22.848 168.226 23.184C168.61 23.496 169.138 23.76 169.81 23.976C170.482 24.192 171.226 24.444 172.042 24.732C173.266 25.14 174.346 25.62 175.282 26.172C176.242 26.724 176.998 27.396 177.55 28.188C178.102 28.956 178.378 29.904 178.378 31.032C178.378 32.28 178.066 33.312 177.442 34.128C176.818 34.944 176.002 35.556 174.994 35.964C174.01 36.372 172.954 36.576 171.826 36.576Z" fill="#F9F9F9"/>
<path d="M79 20.6008C78.9998 19.7237 79.1856 18.8554 79.5465 18.0467C79.9074 17.2379 80.4362 16.5048 81.1019 15.8904C81.7676 15.2759 82.5569 14.7924 83.4236 14.468C84.2904 14.1436 85.2172 13.9849 86.15 14.0011C87.2537 13.9956 88.3459 14.2107 89.3545 14.6321C90.363 15.0535 91.2648 15.6716 92 16.4455C92.7352 15.6716 93.637 15.0535 94.6455 14.6321C95.6541 14.2107 96.7463 13.9956 97.85 14.0011C98.7828 13.9849 99.7096 14.1436 100.576 14.468C101.443 14.7924 102.232 15.2759 102.898 15.8904C103.564 16.5048 104.093 17.2379 104.453 18.0467C104.814 18.8554 105 19.7237 105 20.6008C105 27.1467 96.7073 32.0891 92 36C87.3031 32.0561 79 27.1516 79 20.6008Z" fill="#E40017"/>
</svg>
