<svg width="39" height="39" viewBox="0 0 39 39" fill="none" xmlns="http://www.w3.org/2000/svg">
<path d="M19.4999 36.8528C29.6712 36.8528 37.9166 28.6074 37.9166 18.4361C37.9166 8.26489 29.6712 0.0194702 19.4999 0.0194702C9.3287 0.0194702 1.08328 8.26489 1.08328 18.4361C1.08328 28.6074 9.3287 36.8528 19.4999 36.8528Z" fill="#FFCB4C"/>
<path d="M15.7343 22.789C15.5719 22.6609 15.4537 22.4851 15.3963 22.2864C15.3601 22.1718 15.3482 22.0509 15.3612 21.9314C15.3743 21.812 15.4121 21.6966 15.4722 21.5925C15.5324 21.4885 15.6135 21.3981 15.7105 21.3271C15.8074 21.2561 15.9181 21.2061 16.0355 21.1803C20.9408 20.0742 24.2439 22.6569 24.3837 22.7674C24.7997 23.0989 24.8809 23.6828 24.5711 24.0728C24.2612 24.4606 23.6741 24.5072 23.2592 24.1778C23.14 24.0868 20.5259 22.0946 16.562 22.9883C16.4179 23.0191 16.2688 23.0171 16.1255 22.9826C15.9823 22.9481 15.8486 22.882 15.7343 22.789Z" fill="#65471B"/>
<path d="M14.2122 14.9825C15.4836 14.9825 16.5143 13.6943 16.5143 12.1052C16.5143 10.5161 15.4836 9.22784 14.2122 9.22784C12.9408 9.22784 11.9102 10.5161 11.9102 12.1052C11.9102 13.6943 12.9408 14.9825 14.2122 14.9825Z" fill="#65471B"/>
<path d="M26.4063 16.133C27.6777 16.133 28.7084 14.8448 28.7084 13.2557C28.7084 11.6666 27.6777 10.3784 26.4063 10.3784C25.1349 10.3784 24.1042 11.6666 24.1042 13.2557C24.1042 14.8448 25.1349 16.133 26.4063 16.133Z" fill="#65471B"/>
<path d="M18.7157 38.0781C18.7157 38.0781 20.0861 37.6328 20.2637 36.6134C20.4512 35.5604 19.5877 35.3492 19.5877 35.3492C19.5877 35.3492 20.7155 35.1238 20.8574 33.8585C20.9907 32.6657 19.9247 32.3819 19.9247 32.3819C19.9247 32.3819 20.9755 31.9486 21.0253 30.7147C21.0665 29.6757 19.9474 29.1677 19.9474 29.1677C19.9474 29.1677 25.4052 27.8449 25.9664 27.7149C26.5254 27.5849 27.3964 27.0487 27.1245 25.8797C26.8547 24.7097 25.8202 24.6686 25.2861 24.7932C24.7509 24.9177 17.9801 26.4897 15.6444 27.0335L14.0855 27.3953C13.5005 27.5329 13.2351 27.2762 13.6478 26.8407C14.1982 26.26 14.5502 25.6176 14.6727 24.5516C14.8016 23.4303 14.4213 22.0458 14.2036 21.5085C13.7984 20.5107 13.1148 19.7221 12.3251 19.4512C11.0933 19.0287 10.218 19.799 10.6546 21.1423C11.3089 23.1508 10.8799 24.7986 9.75215 25.7931C7.09907 28.1298 5.86515 29.796 6.68632 33.3472C7.58332 37.2201 11.4281 39.7128 15.301 38.8158L18.7157 38.0781Z" fill="#F19020"/>
<path d="M10.0707 6.88027C9.88832 6.78328 9.74038 6.63231 9.64711 6.44802C9.59066 6.34196 9.55688 6.22532 9.54792 6.10551C9.53895 5.98569 9.555 5.86533 9.59503 5.75205C9.63507 5.63877 9.69822 5.53505 9.78048 5.44747C9.86274 5.3599 9.9623 5.29039 10.0729 5.24335C14.6944 3.25977 18.4134 5.19677 18.5694 5.28018C19.0385 5.53043 19.2281 6.08943 18.993 6.53035C18.759 6.9691 18.1914 7.12185 17.7223 6.87485C17.589 6.8066 14.6543 5.32352 10.9211 6.92577C10.7849 6.98185 10.6379 7.00687 10.4908 6.999C10.3437 6.99113 10.2002 6.95057 10.0707 6.88027ZM23.2169 10.9428C23.042 10.8337 22.9051 10.6733 22.8248 10.4834C22.7754 10.3737 22.7495 10.2549 22.7486 10.1346C22.7477 10.0142 22.7719 9.89504 22.8196 9.78458C22.8673 9.67411 22.9374 9.57478 23.0256 9.49292C23.1138 9.41106 23.2181 9.34846 23.3318 9.3091C28.0779 7.6451 31.6572 9.8291 31.8067 9.92335C32.2563 10.205 32.4079 10.7759 32.1447 11.1995C31.8825 11.622 31.304 11.7358 30.8544 11.4574C30.7244 11.3794 27.9002 9.70127 24.0652 11.0468C23.9249 11.0931 23.7761 11.1078 23.6294 11.0898C23.4828 11.0719 23.3419 11.0216 23.2169 10.9428Z" fill="#65471B"/>
</svg>
