<svg width="26" height="24" viewBox="0 0 26 24" fill="none" xmlns="http://www.w3.org/2000/svg">
<path d="M12.1875 5.375C12.1875 6 12.0885 6.59115 11.8906 7.14844C11.6927 7.70573 11.3646 8.1875 10.9062 8.59375C10.4479 9 9.90104 9.20312 9.26562 9.20312C8.47396 9.20312 7.75521 8.90365 7.10938 8.30469C6.46354 7.70573 5.98438 7 5.67188 6.1875C5.35938 5.375 5.20312 4.58854 5.20312 3.82812C5.20312 3.20312 5.30208 2.61198 5.5 2.05469C5.69792 1.4974 6.02604 1.01562 6.48438 0.609375C6.94271 0.203125 7.48958 0 8.125 0C8.92708 0 9.64844 0.299479 10.2891 0.898438C10.9297 1.4974 11.4062 2.20052 11.7188 3.00781C12.0312 3.8151 12.1875 4.60417 12.1875 5.375ZM6.84375 12.9219C6.84375 13.7552 6.625 14.4792 6.1875 15.0938C5.75 15.7083 5.13021 16.0156 4.32812 16.0156C3.53646 16.0156 2.79948 15.7266 2.11719 15.1484C1.4349 14.5703 0.911458 13.875 0.546875 13.0625C0.182292 12.25 0 11.4583 0 10.6875C0 9.85417 0.21875 9.1276 0.65625 8.50781C1.09375 7.88802 1.71354 7.57812 2.51562 7.57812C3.30729 7.57812 4.04427 7.86719 4.72656 8.44531C5.40885 9.02344 5.93229 9.72135 6.29688 10.5391C6.66146 11.3568 6.84375 12.151 6.84375 12.9219ZM13 12.5C14.2292 12.5 15.5573 13.0078 16.9844 14.0234C18.4115 15.0391 19.6042 16.2734 20.5625 17.7266C21.5208 19.1797 22 20.5052 22 21.7031C22 22.1823 21.9115 22.5807 21.7344 22.8984C21.5573 23.2161 21.3047 23.4505 20.9766 23.6016C20.6484 23.7526 20.3125 23.8568 19.9688 23.9141C19.625 23.9714 19.2292 24 18.7812 24C18.0729 24 17.0964 23.7656 15.8516 23.2969C14.6068 22.8281 13.6562 22.5938 13 22.5938C12.3125 22.5938 11.3099 22.8255 9.99219 23.2891C8.67448 23.7526 7.63021 23.9844 6.85938 23.9844C4.95312 23.9844 4 23.224 4 21.7031C4 20.8073 4.29167 19.8099 4.875 18.7109C5.45833 17.612 6.1849 16.6094 7.05469 15.7031C7.92448 14.7969 8.90104 14.0365 9.98438 13.4219C11.0677 12.8073 12.0729 12.5 13 12.5ZM16.7344 9.20312C16.099 9.20312 15.5521 9 15.0938 8.59375C14.6354 8.1875 14.3073 7.70573 14.1094 7.14844C13.9115 6.59115 13.8125 6 13.8125 5.375C13.8125 4.60417 13.9688 3.8151 14.2812 3.00781C14.5938 2.20052 15.0703 1.4974 15.7109 0.898438C16.3516 0.299479 17.0729 0 17.875 0C18.5104 0 19.0573 0.203125 19.5156 0.609375C19.974 1.01562 20.3021 1.4974 20.5 2.05469C20.6979 2.61198 20.7969 3.20312 20.7969 3.82812C20.7969 4.58854 20.6406 5.375 20.3281 6.1875C20.0156 7 19.5365 7.70573 18.8906 8.30469C18.2448 8.90365 17.526 9.20312 16.7344 9.20312ZM23.4844 7.57812C24.2865 7.57812 24.9062 7.88802 25.3438 8.50781C25.7812 9.1276 26 9.85417 26 10.6875C26 11.4583 25.8177 12.25 25.4531 13.0625C25.0885 13.875 24.5651 14.5703 23.8828 15.1484C23.2005 15.7266 22.4635 16.0156 21.6719 16.0156C20.8698 16.0156 20.25 15.7083 19.8125 15.0938C19.375 14.4792 19.1562 13.7552 19.1562 12.9219C19.1562 12.151 19.3385 11.3568 19.7031 10.5391C20.0677 9.72135 20.5911 9.02344 21.2734 8.44531C21.9557 7.86719 22.6927 7.57812 23.4844 7.57812Z" fill="#FFC947"/>
</svg>
